<?xml version="1.0" encoding="UTF-8"?>
<svg id="_レイヤー_1" xmlns="http://www.w3.org/2000/svg" version="1.1" viewBox="0 0 1728 1296">
  <!-- Generator: Adobe Illustrator 29.5.0, SVG Export Plug-In . SVG Version: 2.1.0 Build 137)  -->
  <defs>
    <style>
      .st0 {
        fill: #617cc3;
      }

      .st1 {
        stroke: #fff;
        stroke-miterlimit: 10;
      }

      .st1, .st2 {
        fill: #004aad;
      }

      .st3 {
        display: none;
      }
    </style>
  </defs>
  <g id="_レイヤー_4">
    <g id="_x3C_丸くしたやつ元_x3E_">
      <path class="st2" d="M577.3,538.94c-23.98-71.48-123.01-79.64-161.13-19.88-3.93,6.17-4.06,14.03-.41,20.38l.63,1.09c5.3,9.2,16.91,12.52,26.31,7.6.54-.28,1.08-.55,1.62-.82,35.87-17.63,77.77,8.97,77.77,48.94v65.03c0,16.13-11.38,30.1-27.22,33.17-.14.03-.29.06-.43.09-8.17,1.53-16.4-2.38-20.54-9.58-23.36-40.55-50.73-88.08-73.21-127.08-3.74-6.84-11.82-20.7-19.52-33.92-29.11-49.98-98.54-58.13-137.69-15.55-7.32,7.96-13.24,17.39-17.16,28.12-.48,1.32-.99,2.62-1.5,3.92-8.78,22.43-4.71,135.83-4.71,136.39.09,10.31,2.11,21.91,5.37,31.12,24.49,72.86,126.13,79.55,162.84,17.19,3.61-6.13,3.66-13.73.11-19.89h0c-5.39-9.36-17.28-12.59-26.74-7.37-.52.29-1.03.56-1.55.83-36.18,18.87-79.45-7.9-79.45-48.71v-61.24c0-18.8,13.91-34.84,32.57-37.16.17-.02.33-.04.49-.06,7.79-.92,15.37,2.95,19.29,9.75,29.91,51.91,61.93,107.51,92.33,160.29,28.88,50.14,99.04,57.11,136.4,12.92,5.96-7.05,10.83-15.12,14.24-24.1.51-1.34,1.05-2.67,1.6-4,9.59-23.17,3.1-112.67,4.83-136.61.03-.49.05-.99.05-1.48-.11-10.29-1.92-20.18-5.17-29.38h-.02,0Z"/>
    </g>
    <g id="_丸くしたやつにそう色">
      <g>
        <path class="st0" d="M364.59,696.55c-11.88,7.23-25.83,11.4-40.75,11.4-43.34,0-78.46-35.13-78.46-78.47,0-38.06,27.11-69.8,63.08-76.96-16.2,4.22-27.79,19.09-27.79,36.24v61.23c0,40.8,43.27,67.57,79.45,48.71.52-.27,1.04-.55,1.55-.83.95-.53,1.93-.97,2.92-1.32h0Z"/>
        <path class="st0" d="M558.3,617.41c0,38.19-27.28,70.01-63.43,77.03,15.83-3.07,27.21-17.03,27.21-33.17v-65.02c0-38.49-38.86-64.59-73.77-50.71,9.65-4.24,20.31-6.59,31.52-6.59,43.34,0,78.46,35.13,78.46,78.46h0Z"/>
      </g>
      <path class="st0" d="M558.3,617.41c0,38.19-27.28,70.01-63.43,77.03,15.83-3.07,27.21-17.03,27.21-33.17v-65.02c0-38.49-38.86-64.59-73.77-50.71,9.65-4.24,20.31-6.59,31.52-6.59,43.34,0,78.46,35.13,78.46,78.46h0Z"/>
      <path class="st0" d="M364.59,696.55c-11.88,7.23-25.83,11.4-40.75,11.4-43.34,0-78.46-35.13-78.46-78.47,0-38.06,27.11-69.8,63.08-76.96-16.2,4.22-27.79,19.09-27.79,36.24v61.23c0,40.8,43.27,67.57,79.45,48.71.52-.27,1.04-.55,1.55-.83.95-.53,1.93-.97,2.92-1.32h0Z"/>
    </g>
  </g>
  <g id="_レイヤー_2">
    <path class="st1" d="M1037.28,674.97h-34.5c-3.01,0-5.44,2.43-5.44,5.43v9c0,3.03,2.47,5.49,5.51,5.49h26.12c1.33,0,2.09,1.48,1.34,2.58-7.35,10.71-19.79,17.65-33.85,17.35-21.34-.46-38.74-17.93-39.06-39.24-.33-22.29,17.67-40.47,39.94-40.47,11.12,0,21.19,4.54,28.43,11.86,5.03,5.08,11.81,8.07,18.97,8.07h21.17c4.5,0,7.63-4.51,6.01-8.7-11.75-30.44-41.68-51.88-76.51-51.06-42.81,1.01-78.3,37.63-77.95,80.35.35,43.72,35.99,79.05,79.89,79.05,37.23,0,68.51-25.41,77.37-59.78.89-3.46,1.56-7.01,1.98-10.64.58-4.94-3.32-9.29-8.31-9.29h-31.12,0Z"/>
    <path class="st1" d="M1037.28,674.97h-34.5c-3.01,0-5.44,2.43-5.44,5.43v9c0,3.03,2.47,5.49,5.51,5.49h26.12c1.33,0,2.09,1.48,1.34,2.58-7.35,10.71-19.79,17.65-33.85,17.35-21.34-.46-38.74-17.93-39.06-39.24-.33-22.29,17.67-40.47,39.94-40.47,11.12,0,21.19,4.54,28.43,11.86,5.03,5.08,11.81,8.07,18.97,8.07h21.17c4.5,0,7.63-4.51,6.01-8.7-11.75-30.44-41.68-51.88-76.51-51.06-42.81,1.01-78.3,37.63-77.95,80.35.35,43.72,35.99,79.05,79.89,79.05,37.23,0,68.51-25.41,77.37-59.78.89-3.46,1.56-7.01,1.98-10.64.58-4.94-3.32-9.29-8.31-9.29h-31.12,0Z"/>
    <path class="st1" d="M1365.31,694.89h22.61c3.83,0,7.1-2.77,7.74-6.54.74-4.35,1.12-8.82,1.12-13.38,0-14.01-3.63-27.17-9.97-38.6-7.04-12.66-17.42-23.21-29.97-30.45-10.65-6.15-22.86-9.91-35.89-10.57-46.15-2.31-83.95,34.49-83.95,80.59v73.5c0,2.88,2.34,5.23,5.24,5.23h27.68c3.88,0,7.02-3.13,7.02-7v-50.74c0-1.13.92-2.04,2.05-2.04h37.97c1.42,0,2.67.93,3.06,2.28,1.67,5.76,3.98,11.25,6.83,16.4,7.04,12.66,17.42,23.21,29.97,30.44,10.28,5.94,22.01,9.65,34.53,10.48,2.94.19,5.41-2.17,5.41-5.11v-23.1c0-5.99-4.06-11.21-9.88-12.69l-.09-.02c-9.44-2.42-17.52-8.2-22.92-15.98-.79-1.14.02-2.7,1.41-2.7h.03,0ZM1316.89,674.97h-35.22c-2.66,0-4.75-2.32-4.42-4.96,2.45-19.67,19.26-34.9,39.64-34.9,3.45,0,6.8.44,9.97,1.26,14.71,3.76,26.14,15.69,29.18,30.65.83,4.12-2.39,7.95-6.6,7.95h-32.55Z"/>
    <path class="st1" d="M1157.11,595.25c-44.12,0-79.89,35.7-79.89,79.71,0,1.7.05,3.4.17,5.08v69.47c0,2.85,2.31,5.15,5.17,5.15h29.62c2.85,0,5.17-2.31,5.17-5.15v-49.48c0-2.85,2.31-5.15,5.17-5.15h69.2c2.85,0,5.17,2.31,5.17,5.15v49.48c0,2.85,2.31,5.15,5.17,5.15h29.62c2.85,0,5.17-2.31,5.17-5.15v-69.47c.12-1.68.17-3.38.17-5.08-.02-44.03-35.78-79.71-79.91-79.71h0ZM1117.35,674.97h-.18c0-22.01,17.88-39.86,39.95-39.86s39.95,17.85,39.95,39.86h-79.72,0Z"/>
    <path class="st1" d="M837.03,595.25c-44.12,0-79.89,35.7-79.89,79.71,0,1.7.05,3.4.17,5.08v69.47c0,2.85,2.31,5.15,5.17,5.15h29.62c2.85,0,5.17-2.31,5.17-5.15v-49.48c0-2.85,2.31-5.15,5.17-5.15h69.2c2.85,0,5.17,2.31,5.17,5.15v49.48c0,2.85,2.31,5.15,5.17,5.15h29.62c2.85,0,5.17-2.31,5.17-5.15v-69.47c.12-1.68.17-3.38.17-5.08-.02-44.03-35.79-79.71-79.91-79.71h0ZM797.26,674.97h-.18c0-22.01,17.88-39.86,39.95-39.86s39.95,17.85,39.95,39.86h-79.72Z"/>
    <path class="st1" d="M1476.67,595.25c-44.12,0-79.88,35.7-79.88,79.71,0,1.7.05,3.4.17,5.08v69.47c0,2.85,2.31,5.15,5.17,5.15h29.61c2.85,0,5.17-2.31,5.17-5.15v-49.48c0-2.85,2.31-5.15,5.17-5.15h69.21c2.85,0,5.17,2.31,5.17,5.15v49.48c0,2.85,2.31,5.15,5.17,5.15h29.61c2.85,0,5.17-2.31,5.17-5.15v-69.47c.12-1.68.17-3.38.17-5.08-.02-44.03-35.78-79.71-79.91-79.71h0ZM1436.9,674.97h-.18c0-22.01,17.88-39.86,39.95-39.86s39.95,17.85,39.95,39.86h-79.72,0Z"/>
    <path class="st1" d="M728.02,596.54c-5.9,0-10.69,4.77-10.69,10.67h0v69.04c0,4.92-.89,9.64-2.53,13.99l-51.43-51.32-21.71-21.67c-4.72-4.7-12.33-5.02-17.32-.6-7.08,6.28-13.04,13.79-17.52,22.21-5.95,11.15-9.33,23.88-9.33,37.39v69.05c0,5.89,4.78,10.67,10.69,10.67h18.57c5.9,0,10.69-4.77,10.69-10.67h0v-69.05c0-2.16.17-4.27.51-6.33l45.79,45.7,24.26,24.2c4.27,4.27,11,4.77,15.91,1.25,8.08-5.78,15.02-13.02,20.45-21.34,8.18-12.51,12.92-27.44,12.92-43.47v-67.62c0-6.68-5.42-12.09-12.12-12.09h-17.15.01Z"/>
    <g class="st3">
      <path class="st2" d="M1404.65,366.86c-22.05-6.6-45.55-10.17-69.95-10.17-79.28,0-149.13,37.6-190.08,94.7-12.53,17.46-13.32,40.04-2.04,58.22l2.11,3.4c5,8.06,17.78,6.99,21.24-1.74,25.35-63.86,91.35-109.4,168.77-109.4,15.8,0,31.13,1.9,45.72,5.46,14.24,3.48,24.23,15.39,24.23,29.09h0v368.76c0,32.3-27.25,59.4-61.93,60.41-.76.02-1.53.03-2.31.03-5.6,0-11.06-.59-16.3-1.7-19.07-4.06-35.27-15.71-45.05-31.48l-195.65-315.4s-.02-.03-.02-.04c-9.86-22.15-22.7-42.74-38-61.27h0c-5.97-7.27-12.32-14.18-19.03-20.76,0,0-.02-.02-.03-.03-37.97-43.29-93.92-72.39-157.25-77.44h-.11c-6.46-.52-13.01-.78-19.63-.78-2.41,0-4.81.04-7.2.12-69.19,1.99-130.64,32.63-171.11,79.61-.08.08-.15.17-.22.26-13,15.16-19.9,34.08-19.9,53.47v261.73c0,3.67-.18,7.35-.52,11.01-.6,6.27-.9,12.61-.9,19.02,0,8.08.49,16.05,1.43,23.89.8,6.74,1.95,13.4,3.43,19.93,7.47,33.18,23.25,63.52,45.24,89.05,41.86,48.6,106.18,79.73,178.32,79.73s131.53-28.79,173.42-74.25c21.3-23.11,24.47-56.26,8.11-82.62h0c-2.89-4.67-10.31-4.03-12.28,1.03-24.98,64.53-91.33,110.65-169.25,110.65-40.36,0-77.63-12.39-107.65-33.29-12.21-8.5-19.41-21.85-19.41-36.04h0s-1.62-73.4,0-118.83c.87-24.43,0-97.78,0-97.78v-109.59c0-52.51,44.66-96.2,101.06-97.42,1.05-.02,2.11-.03,3.16-.03,42.69,0,80.68,18.75,104.96,47.9,0,0,.06.05.07.08l-.39-.08s13.44,21.05,17.75,28.1c.11.18.42.66.55.87.08.13.16.26.24.39l60.2,97.07h0l17.82,28.75,34.34,55.36,8.37,13.49h0l35.93,57.92,99.21,163.63c3.9,6.43,8.83,12.29,14.62,17.35h0c.21.25.44.49.71.69,10.98,7.71,13.79,7.12,23.38,10.93,27.6,11.02,58.5,15.72,90.44,15.72,5.35,0,10.66-.17,15.91-.52,8.64-.56,17.15-1.56,25.49-2.98,22.62-3.85,44.08-10.8,63.84-20.36,22.31-10.8,36.09-32.46,36.09-55.87h0v-478.36h0c0-6.08-2.53-11.93-7.1-16.27-25.57-24.17-57.29-42.68-92.83-53.3h0l-.02-.02h0Z"/>
    </g>
    <g class="st3">
      <path class="st2" d="M1338.74,528.49v141.13c22.07-22.43,35.7-53.2,35.7-87.15s-13.62-64.72-35.7-87.15v33.17Z"/>
    </g>
    <g class="st3">
      <path class="st2" d="M838.05,683.71c.66-20.1,0-80.44,0-80.44v-29c-22.07,22.43-35.7,53.2-35.7,87.15s13.44,64.3,35.25,86.69c-.18-20.03-.19-45.24.45-64.4h0Z"/>
    </g>
  </g>
</svg>