<svg xmlns="http://www.w3.org/2000/svg" width="189.722" height="319.315" viewBox="0 0 189.722 319.315"><defs><style>.a{fill:#fff;}.b{fill:#fcdc4a;}.c{fill:#211715;}</style></defs><path class="a" d="M6.639,197.154A276.582,276.582,0,0,0,3.52,270.91c1.009,11.4,3.66,22.061,7.426,28.1a32.75,32.75,0,0,0,13.737,12.236c10.6,4.752,29.687,2.325,41.272-.859,3.889-1.068,8.409-2.372,13.068-3.766,12.257,3.654,25.718,6.882,36.241,8.316,13.811,1.883,24.248,2.649,38.975,1.3,12.32-1.586,20.5-6.349,24.325-13.447,4.692-8.7,6.636-16.8,7.384-28.21.954-14.283,1.539-28.61,1.322-42.936-.217-13.882-.639-27.588-5.072-40.863a45.05,45.05,0,0,0-22.291-25.619c-7.455-3.9-15.469-6.828-23.427-9.685-9.514,7.39-26.411,11.753-40.708,12.324a91.026,91.026,0,0,1-31.236-5.672L49.9,156.382l-.335.12c-13.077,4.684-19.626,7.189-28.442,13.8a34.847,34.847,0,0,0-7.558,7.981,57.624,57.624,0,0,0-6.929,18.867"></path><path class="a" d="M153.807,252.7c-.759,7.656-2.234,20.863-4.543,33.561l-.922-.174c-8.122.944-34.2,3.318-38.18,1.3l-1.16.239c-1.833-9.163-5.249-21.676-7.016-29.2a5.745,5.745,0,0,0-.477-1.268l1.16-.315a110.523,110.523,0,0,1,16.8-5.779c5.985-1.735,12.383-3.535,20.635-3.546a35.082,35.082,0,0,1,10.941,2.223l3.025.26Q153.953,251.289,153.807,252.7Z"></path><path class="a" d="M45.361,230.853c7.211,6.517,20.494,19.714,27.207,26.61l.206,1.117c-12.655,2.353-26.166,4.934-36.12,6.712l-.434-2.429c-1.312-1.724-2.591-3.469-4.1-5.432a10.6,10.6,0,0,1-1.865-3.058,4.452,4.452,0,0,1,.629-3.828c1.171-1.344,2.635-1.42,4.522-1.149l.661-.629c-.78-.824-1.572-1.637-2.364-2.451a14.611,14.611,0,0,1-3.177-4.261,3.842,3.842,0,0,1,.564-3.991,4.707,4.707,0,0,1,4.229-1.42l1.063-.011a7.906,7.906,0,0,1-1.074-1.67,4.674,4.674,0,0,1,.683-5.118,5.376,5.376,0,0,1,4.4-1.355A9.337,9.337,0,0,1,45.361,230.853Z"></path><path class="b" d="M127.649,200.432c-25.239.621-66.167.8-74.143.943-.188-10.76-.256-35.914-.46-46.117-5.062,1.811-9.206,3.281-12.826,4.689.389,14.023-.452,33.575-.5,43.635-.46,7.257-1.509,14.935-2.539,25.42a6.12,6.12,0,0,1,3.22-.514,9.229,9.229,0,0,1,4.961,2.371c7.221,6.511,20.493,19.713,27.2,26.6l.955.98c8.366-1.557,16.316-3.009,22.566-4.055a5.221,5.221,0,0,1,5.507,2.938c7.088-3.216,10.816-4.226,17.873-6.262,5.985-1.735,12.383-3.535,20.635-3.546a35.122,35.122,0,0,1,10.941,2.223L154,250.749c.891-9.421,1.027-14.629,2.183-25.285-1.335-9.708-2.565-16.964-3.235-23.861-.365-9.36-1.727-26.926-1.988-40.62-4.634-1.948-9.381-3.676-14.112-5.376.432,13.555.447,30.777.751,44.522C134.721,200.241,131.354,200.341,127.649,200.432Z" style="fill: rgb(0, 74, 173);"></path><path class="b" d="M41.717,159.375c2.362-.9,4.938-1.83,7.851-2.873l.335-.12,5.182,2.035a9.014,9.014,0,0,1,.162-1.765l4.944-2.047c3.61-1.43,6.541-2.586,9.371-4.949a9.414,9.414,0,0,0,2.754-4.162,13.675,13.675,0,0,0,.589-3.865c.145-2.606.085-3.488.072-5.378-5.034-2.315-9.577-6.065-13.923-11.125a54.863,54.863,0,0,1-10.674-19.5,7.8,7.8,0,0,1-6.654-1.57c-3.877-3.086-5.528-7.44-6.537-10.287-1.426-4.021-1.6-10.548.393-14.118a6.694,6.694,0,0,1,5.967-3.422,7.354,7.354,0,0,1,4.605,1.317c1.912-1.477,3.877-3.079,5.877-4.777C60.549,65.54,69.7,56.553,78.065,48.041c-.309,3.069-1.485,8.325-1.636,11.5-.06,1.274.219,1.71,1.193,2.151a4.434,4.434,0,0,0,2.576-.163,61.756,61.756,0,0,0,30.386-22.949c1.8,6.446,4.329,14.463,6.478,18.355,5.315,9.625,14.191,17.656,22,19.889a7.214,7.214,0,0,1,5.188-1.98A6.692,6.692,0,0,1,150.3,78.1c2.091,3.515,2.093,10.044.777,14.1-.933,2.874-2.464,7.271-6.256,10.461a7.948,7.948,0,0,1-6.106,1.852l-.589-.091a46.736,46.736,0,0,1-2.032,5.753c-1.478,4.187-9.66,18.753-20.242,24.86.077,2.227.023,3.036.277,5.838a13.679,13.679,0,0,0,.724,3.842,9.411,9.411,0,0,0,2.9,4.063c2.911,2.262,5.881,3.316,9.538,4.619l5.013,1.873a10.382,10.382,0,0,1,.263,1.583q1-.671,1.913-1.379c2.692.967,5.39,1.945,8.071,2.962a19.189,19.189,0,0,0,17.642-13.274c2.38-7.858-.924-17.93-3.392-25.76a151.892,151.892,0,0,1-6.54-41.362c.125-8.157-.612-17.813-.973-21.855-1.251-14.011-7.84-29.567-17.08-38.116-3.68-3.4-4.965-5.146-8.517-7.143l-8.186-3.881A66.2,66.2,0,0,0,90.947,2.439c-18.234.318-34.3,9.995-41.382,17.016C37.817,31.1,30.6,52.127,32.062,80.921c.341,19.527-1.013,33.636-3.115,41.683a94.573,94.573,0,0,0-2.531,20.217C26.475,149.231,32.286,157.508,41.717,159.375Z" style="fill: rgb(0, 74, 173);"></path><path class="a" d="M41.726,104.061a7.8,7.8,0,0,0,6.654,1.57,54.863,54.863,0,0,0,10.674,19.5c4.346,5.06,8.889,8.81,13.923,11.125.013,1.89.073,2.772-.072,5.378a13.675,13.675,0,0,1-.589,3.865,9.414,9.414,0,0,1-2.754,4.162c-2.83,2.363-5.761,3.519-9.371,4.949l-4.944,2.047a9.014,9.014,0,0,0-.162,1.765l9.451,3.711A91.026,91.026,0,0,0,95.772,167.8c13.384-.535,29.044-4.392,38.8-10.945a10.382,10.382,0,0,0-.263-1.583l-5.013-1.873c-3.657-1.3-6.627-2.357-9.538-4.619a9.411,9.411,0,0,1-2.9-4.063,13.679,13.679,0,0,1-.724-3.842c-.254-2.8-.2-3.611-.277-5.838,10.582-6.107,18.764-20.673,20.242-24.86a46.736,46.736,0,0,0,2.032-5.753l.589.091a7.948,7.948,0,0,0,6.106-1.852c3.792-3.19,5.323-7.587,6.256-10.461,1.316-4.058,1.314-10.587-.777-14.1a6.692,6.692,0,0,0-6.057-3.259,7.214,7.214,0,0,0-5.188,1.98c-7.805-2.233-16.681-10.264-22-19.889-2.149-3.892-4.681-11.909-6.478-18.355A61.756,61.756,0,0,1,80.2,61.526a4.434,4.434,0,0,1-2.576.163c-.974-.441-1.253-.877-1.193-2.151.151-3.172,1.327-8.428,1.636-11.5C69.7,56.553,60.549,65.54,52.031,72.774c-2,1.7-3.965,3.3-5.877,4.777a7.354,7.354,0,0,0-4.605-1.317,6.694,6.694,0,0,0-5.967,3.422c-1.994,3.57-1.819,10.1-.393,14.118C36.2,96.621,37.849,100.975,41.726,104.061Z"></path><path class="c" d="M136.639,100.387a44.36,44.36,0,0,1-1.589,5.84c-.277.821-.567,1.641-.9,2.444,0,0-.167.4-.072.174.136-.323-.25.577-.179.407-.1.246-.2.492-.292.741-.218.582.132-.272-.033.086-.091.2-.177.4-.269.6-.211.456-.433.907-.661,1.355-.562,1.1-1.165,2.182-1.795,3.246a57.237,57.237,0,0,1-12.2,14.883,22.722,22.722,0,0,1-9.049,4.859c-3,.736-1.729,5.366,1.276,4.629,7-1.718,12.769-6.9,17.282-12.293a63.424,63.424,0,0,0,9.561-14.852c.161-.367.319-.736.467-1.109.038-.1.252-.662.123-.332-.186.476.178-.417.153-.357.107-.252.214-.5.316-.757.193-.476.373-.958.547-1.441a45.663,45.663,0,0,0,1.937-6.843,2.463,2.463,0,0,0-1.676-2.952,2.422,2.422,0,0,0-2.952,1.676Z"></path><path class="c" d="M45.1,102.741a57.885,57.885,0,0,0,8.431,19.106c4.314,6.289,9.954,12.174,16.765,15.753a33.8,33.8,0,0,0,11.36,3.536c1.287.173,2.4-1.227,2.4-2.4a2.462,2.462,0,0,0-2.4-2.4c-13.4-1.8-23.6-13.883-28.812-25.556a53.69,53.69,0,0,1-3.115-9.315c-.723-3-5.353-1.731-4.629,1.276Z"></path><path class="c" d="M87.239,118.068c.334-.186.67-.369,1.015-.534.1-.046.2-.086.3-.136.249-.132-.523.191-.117.048.279-.1.551-.209.832-.3a15.052,15.052,0,0,1,2.009-.491c.024,0,.743-.108.289-.051.209-.026.419-.047.628-.066.506-.045,1.013-.071,1.52-.082a21.362,21.362,0,0,1,2.747.123c.3.032-.316-.062.135.026.2.039.406.073.608.117.3.066.607.143.905.232s.564.2.849.292-.476-.24-.109-.045c.115.061.237.112.353.172a6.952,6.952,0,0,1,.961.6,2.408,2.408,0,0,0,3.284-.861,2.472,2.472,0,0,0-.861-3.284c-2.451-1.827-5.917-2.232-8.872-2.171a18.787,18.787,0,0,0-8.894,2.267,2.4,2.4,0,0,0,2.423,4.145Z"></path><path class="c" d="M92.354,94.955a35.852,35.852,0,0,1,1.075,4.659l-.086-.638a2.563,2.563,0,0,1,.008.574l.085-.638a1.4,1.4,0,0,1-.08.292l.242-.574a.687.687,0,0,1-.071.127l.376-.486a.994.994,0,0,1-.153.158l.486-.376a2.916,2.916,0,0,1-.456.24l.573-.242a2.619,2.619,0,0,1-.514.145l.638-.085a2.477,2.477,0,0,1-.638,0l.638.086c-.408-.059-.807-.131-1.219-.181a2.394,2.394,0,0,0-1.7.7,2.4,2.4,0,0,0,0,3.394l.485.376a2.388,2.388,0,0,0,1.212.327l.054.007-.638-.086a10.455,10.455,0,0,0,1.5.2,4.893,4.893,0,0,0,2.217-.584,3.189,3.189,0,0,0,1.659-2.085A5.346,5.346,0,0,0,98,97.972c-.267-1.445-.622-2.877-1.014-4.293a2.483,2.483,0,0,0-1.1-1.434,2.4,2.4,0,0,0-3.525,2.71Z"></path><path class="c" d="M68.05,82.344c-.73,2.493-.155,8.2,4.555,8.619,6.216-.121,6.453-7.03,4.316-10.249C75.172,78.08,70.119,77.042,68.05,82.344Z"></path><path class="c" d="M117.83,81.669c.8,2.472.378,8.19-4.319,8.74-6.217.046-6.641-6.854-4.593-10.129C110.6,77.6,115.618,76.426,117.83,81.669Z"></path><path class="c" d="M140.755,78.518a5.171,5.171,0,0,1,4.432-1.2,4.673,4.673,0,0,1,2.016.813c-.14-.1.951,1,.635.587,1.781,2.344,1.874,5.818,1.7,8.622a22.1,22.1,0,0,1-2.5,8.6c-1.65,3.209-4.314,6.656-8.316,6.172a2.414,2.414,0,0,0-2.4,2.4,2.458,2.458,0,0,0,2.4,2.4c8.13.982,13.016-8.074,14.855-14.671a24.589,24.589,0,0,0,.408-10.814,11.038,11.038,0,0,0-4.356-7.443,10.158,10.158,0,0,0-12.264,1.137c-2.272,2.1,1.129,5.491,3.394,3.394Z"></path><path class="c" d="M48.486,76.375a10.261,10.261,0,0,0-11.3-1.467,9.85,9.85,0,0,0-4.928,6.831,25.79,25.79,0,0,0,4.129,20.024c2.865,4.1,6.927,7.071,12.131,6.3a2.416,2.416,0,0,0,1.676-2.952,2.461,2.461,0,0,0-2.952-1.676c-3.575.53-6.384-3.258-7.875-5.973a22.162,22.162,0,0,1-2.781-8.651c-.232-2.791-.232-6.258,1.5-8.626q.142-.2-.051.072.148-.174.309-.337a2.221,2.221,0,0,1,.5-.436,4.877,4.877,0,0,1,1.762-.727,5.136,5.136,0,0,1,4.479,1.014c2.314,2.029,5.722-1.353,3.394-3.394Z"></path><path class="c" d="M108.423,39.773c1.8,6.36,3.58,13.136,6.874,18.917a50.784,50.784,0,0,0,13.9,15.719,30.029,30.029,0,0,0,9.221,4.726c2.969.876,4.237-3.755,1.276-4.629-7.128-2.1-13.18-7.948-17.426-13.842-4.77-6.621-7.021-14.4-9.219-22.167-.84-2.967-5.473-1.706-4.628,1.276Z"></path><path class="c" d="M108.47,37.424A60.888,60.888,0,0,1,93.953,51.863a60.588,60.588,0,0,1-9.1,5.225c-1.546.718-3.126,1.354-4.732,1.925a6.682,6.682,0,0,1-1.266.387c-.112.015-.222,0-.333.014-.581.061.09-.01.036.07.062-.091-1.261-.437.148.231.011,0,.091.157.1.154a5.594,5.594,0,0,0,.061-.93c.283-3.661,1.208-7.247,1.6-10.9.228-2.135-2.739-3.078-4.1-1.7C67.931,54.922,59.36,63.409,50.186,71.2a2.421,2.421,0,0,0,0,3.394,2.45,2.45,0,0,0,3.394,0C62.755,66.8,71.326,58.316,79.762,49.739l-4.1-1.7c-.384,3.593-1.315,7.239-1.6,10.9-.154,1.993.339,3.768,2.208,4.756,2.076,1.1,4.413.235,6.433-.534A64.225,64.225,0,0,0,103.484,50.3a69.008,69.008,0,0,0,9.131-10.456,2.418,2.418,0,0,0-.861-3.283,2.453,2.453,0,0,0-3.284.861Z"></path><path class="c" d="M149.865,78.042a158.738,158.738,0,0,0,5.665,38.81c1.651,5.751,3.741,11.384,4.69,17.316.812,5.078.53,10.28-2.428,14.639a16.906,16.906,0,0,1-13.227,7.235c-3.081.1-3.095,4.9,0,4.8a21.9,21.9,0,0,0,14.724-6.384,21.439,21.439,0,0,0,6.126-15.536c-.038-6.247-1.857-12.374-3.707-18.284a150.853,150.853,0,0,1-4.844-19.536,167.2,167.2,0,0,1-2.2-23.06c-.1-3.082-4.9-3.095-4.8,0Z"></path><path class="c" d="M124.48,13a24.324,24.324,0,0,1,4.81,3.686c1.747,1.675,3.566,3.3,5.211,5.074a49.851,49.851,0,0,1,7.893,11.8,66.556,66.556,0,0,1,5.1,14.266,79.857,79.857,0,0,1,1.746,12.742c.419,5.811.7,11.643.621,17.471-.042,3.089,4.758,3.091,4.8,0,.074-5.485-.174-10.972-.549-16.442a96.518,96.518,0,0,0-1.637-13.474c-2.171-10.24-6.575-20.39-13.382-28.41-1.81-2.133-3.895-3.992-5.9-5.935a31.825,31.825,0,0,0-6.29-4.927C124.216,7.32,121.8,11.466,124.48,13Z"></path><path class="c" d="M118.143,4.732A70.461,70.461,0,0,0,88.316.149,67.2,67.2,0,0,0,59.287,9.264,52.523,52.523,0,0,0,42.452,24.217a66.692,66.692,0,0,0-9.8,22.112,116.718,116.718,0,0,0-2.995,34.592c.152,3.075,4.952,3.093,4.8,0-.86-17.519.951-36.548,10.454-51.759A45.123,45.123,0,0,1,58.767,15.218a63.909,63.909,0,0,1,26.1-9.931,65.476,65.476,0,0,1,32,4.074,2.419,2.419,0,0,0,2.952-1.676,2.455,2.455,0,0,0-1.676-2.953Z"></path><path class="c" d="M29.665,80.922c.206,12.351.126,25.142-2.176,37.191-.411,2.155-1,4.266-1.451,6.413-.641,3.085-1.093,6.212-1.45,9.342-.635,5.555-1.218,11.1,1.33,16.269a22.079,22.079,0,0,0,15.169,11.549c3.015.624,4.3-4,1.276-4.629a17.514,17.514,0,0,1-12.025-8.809,12.138,12.138,0,0,1-1.524-5.728,74.494,74.494,0,0,1,.574-8.652c.561-4.92,1.8-9.635,2.73-14.479a128.7,128.7,0,0,0,1.838-15.122c.546-7.767.639-15.562.509-23.345-.052-3.086-4.852-3.095-4.8,0Z"></path><path class="c" d="M70.587,137.036c.015,1.232.017,2.462-.037,3.693a13.251,13.251,0,0,1-.646,4.4c-1.046,2.54-3.386,3.994-5.807,5.213-3.048,1.535-6.333,2.694-9.488,4a2.479,2.479,0,0,0-1.676,2.953,2.415,2.415,0,0,0,2.952,1.676,115.665,115.665,0,0,0,11.461-4.917,14.689,14.689,0,0,0,7.063-7.351c1.2-2.967,1.016-6.506.978-9.662-.038-3.086-4.838-3.095-4.8,0Z"></path><path class="c" d="M113.49,136.287c.115,5.047.287,10.746,4.566,14.19,3.512,2.827,7.762,4.177,11.924,5.732l3.686,1.377a2.42,2.42,0,0,0,2.952-1.676,2.451,2.451,0,0,0-1.676-2.952c-3.191-1.192-6.562-2.235-9.626-3.644-2.568-1.182-5.028-2.6-6.147-5.251a13.663,13.663,0,0,1-.722-4.2c-.092-1.192-.13-2.384-.157-3.578-.07-3.084-4.87-3.095-4.8,0Z"></path><path class="c" d="M54.165,251.055c-3.869-3.817-7.7-7.673-11.541-11.52-.951-.953-1.921-1.885-2.884-2.826a9.451,9.451,0,0,1-2.288-2.793c-.931-2.178,1.105-3.356,3.027-3,2.112.4,3.614,2.015,5.123,3.411q2.321,2.148,4.6,4.339,5.276,5.051,10.451,10.206,5.143,5.1,10.211,10.283c2.16,2.217,5.552-1.179,3.394-3.394Q63.626,244.854,52.6,234.325c-3.588-3.416-7.56-8.32-12.952-8.272a6.978,6.978,0,0,0-6.985,5.107c-.881,3.417,1.072,6.346,3.384,8.648,4.9,4.883,9.8,9.78,14.726,14.641,2.2,2.172,5.6-1.22,3.394-3.394Z"></path><path class="c" d="M35.317,234.247a6.751,6.751,0,0,0-6.9,3.607c-1.441,3.13.055,6.064,2.074,8.5,1.885,2.274,4.094,4.329,6.137,6.462,2.079,2.17,4.184,4.315,6.4,6.344a2.45,2.45,0,0,0,3.394,0,2.425,2.425,0,0,0,0-3.394c-3.57-3.267-6.835-6.839-10.2-10.311-.791-.817-1.618-1.611-2.337-2.495a5.134,5.134,0,0,1-1.279-2.25c-.172-1.487,1.391-1.838,2.71-1.664a2.411,2.411,0,0,0,2.4-2.4,2.462,2.462,0,0,0-2.4-2.4Z"></path><path class="c" d="M38.3,261.657c-1.009-1.331-2-2.673-3.01-4-.5-.66-1.007-1.313-1.5-1.973-.226-.3-.45-.6-.655-.917-.123-.188-.241-.379-.348-.575-.028-.049-.271-.577-.168-.319.092.232-.079-.272-.085-.294-.024-.09-.057-.559-.05-.2.007.379.006-.163.006-.239,0-.162.017-.32.022-.481.009-.286-.108.411.019-.029.052-.183.1-.361.16-.542-.1.328-.161.168.028.012.249-.205-.469.431.008,0,.052-.047.463-.391.185-.189s.149-.073.207-.11c.4-.253-.246.024-.014,0a3,3,0,0,0,.422-.113c.53-.138-.489-.008.078,0,.158,0,.316-.009.474-.006s.33.012.5.025c.116.009.729.08.2.009a2.471,2.471,0,0,0,2.953-1.676c.256-1.127-.346-2.773-1.677-2.953-2-.269-4.075-.377-5.805.861a6.2,6.2,0,0,0-2.531,5.661c.193,2.212,1.437,3.856,2.739,5.559,1.248,1.631,2.467,3.284,3.706,4.921a2.465,2.465,0,0,0,3.284.861c.986-.636,1.671-2.213.861-3.284Z"></path><path class="c" d="M150.916,290.461c3.393-17.406,5.175-35.07,6.538-52.733q.581-7.539,1.438-15.051a2.415,2.415,0,0,0-2.4-2.4,2.457,2.457,0,0,0-2.4,2.4c-.935,8.166-1.48,16.355-2.178,24.542q-1.062,12.454-2.8,24.849c-.8,5.728-1.722,11.44-2.828,17.117a2.461,2.461,0,0,0,1.676,2.952,2.421,2.421,0,0,0,2.952-1.676Z"></path><path class="c" d="M179.884,191.418c4.9,14.818,5.028,30.7,5.031,46.153,0,8.068-.231,16.134-.622,24.192-.36,7.4-.533,14.929-1.8,22.243a57.081,57.081,0,0,1-5.82,17.224,21.593,21.593,0,0,1-10.371,9.334c-5.982,2.782-12.6,3.452-19.11,3.775a145.479,145.479,0,0,1-20.623-.475,243.269,243.269,0,0,1-47.047-9.6c-2.966-.883-4.234,3.748-1.276,4.629a254.913,254.913,0,0,0,43.887,9.309,155.155,155.155,0,0,0,21.089,1.079c7.236-.162,14.617-.581,21.511-2.96,5.2-1.793,10.216-4.634,13.668-9,3.758-4.759,6.082-10.981,7.6-16.8,1.837-7.058,2.272-14.355,2.7-21.606.492-8.3.842-16.608.963-24.921.118-8.118.055-16.256-.332-24.367a121.088,121.088,0,0,0-3.168-23.8q-.723-2.873-1.656-5.682c-.965-2.92-5.6-1.669-4.629,1.276Z"></path><path class="c" d="M139.762,159.207c7.464,2.727,15.087,5.55,21.9,9.7a42.223,42.223,0,0,1,13.377,12.785,46.627,46.627,0,0,1,4.846,9.726,2.463,2.463,0,0,0,2.952,1.676,2.42,2.42,0,0,0,1.677-2.952,49.639,49.639,0,0,0-10.848-17.782c-5.225-5.4-11.667-9.082-18.465-12.134-4.639-2.081-9.388-3.9-14.162-5.648a2.421,2.421,0,0,0-2.952,1.676,2.451,2.451,0,0,0,1.676,2.953Z"></path><path class="c" d="M4.325,196.516a286.888,286.888,0,0,0-3.119,75.329c1.06,10.946,3.106,22.981,10.141,31.809A33.214,33.214,0,0,0,24.862,313.9,41.27,41.27,0,0,0,39.114,316.3a102.458,102.458,0,0,0,29.735-4.223q15.123-4.239,30.046-9.188c2.093-.7,4.181-1.411,6.257-2.158,2.4-.863,4.711-1.723,6.068-4.056,1.418-2.435.973-4.968.5-7.587-.421-2.32-.915-4.627-1.435-6.926-1.166-5.161-2.471-10.29-3.769-15.419-.585-2.315-1.173-4.63-1.738-6.951-.633-2.6-1.323-4.89-3.618-6.52-2.33-1.655-4.825-1.35-7.468-.9q-3.282.561-6.559,1.149-7.579,1.354-15.148,2.778c-10.392,1.937-20.775,3.921-31.175,5.817q-3.192.582-6.388,1.147a2.42,2.42,0,0,0-1.677,2.952,2.455,2.455,0,0,0,2.953,1.676c19.068-3.358,38.047-7.2,57.123-10.52,1.6-.278,3.829-1.128,5.352-.321,1.7.9,1.788,3.259,2.2,4.929,1.151,4.675,2.363,9.335,3.514,14.011s2.276,9.339,3.148,14.063c.318,1.722.962,3.774-.691,5.035a8.224,8.224,0,0,1-2.2.919q-1.386.5-2.78.982c-9.318,3.23-18.763,6.116-28.231,8.871-9.079,2.641-18.128,4.923-27.606,5.5a57.151,57.151,0,0,1-14.048-.579,25.586,25.586,0,0,1-12.21-5.812,30.293,30.293,0,0,1-8.445-11.519,71.318,71.318,0,0,1-4.089-15.83,172.149,172.149,0,0,1-1.571-17.346q-.47-8.733-.389-17.481A275.421,275.421,0,0,1,7.5,207.18q.663-4.7,1.456-9.388a2.47,2.47,0,0,0-1.676-2.952,2.419,2.419,0,0,0-2.952,1.676Z"></path><path class="c" d="M8.953,197.792a50.585,50.585,0,0,1,3.621-12.242,31.328,31.328,0,0,1,5.851-9.54c5.022-5.334,11.673-9.152,18.357-12.08,4.385-1.921,8.921-3.5,13.424-5.114a2.462,2.462,0,0,0,1.677-2.952,2.421,2.421,0,0,0-2.953-1.676c-7.947,2.848-16.028,5.652-23.253,10.1A53.352,53.352,0,0,0,16,171.623a33.794,33.794,0,0,0-7.037,10.3,55.228,55.228,0,0,0-4.636,14.594A2.479,2.479,0,0,0,6,199.468a2.416,2.416,0,0,0,2.952-1.676Z"></path><path class="c" d="M108.946,289.464a14.122,14.122,0,0,0,5.39,1.03c2.618.147,5.249.094,7.868.008,6.144-.2,12.281-.67,18.4-1.229,2.582-.236,5.164-.49,7.741-.788a2.473,2.473,0,0,0,2.4-2.4,2.416,2.416,0,0,0-2.4-2.4c-5.032.582-10.083,1.027-15.135,1.4-5.729.423-11.5.815-17.25.672-1.136-.028-2.265-.1-3.4-.209-.587-.056.439.1-.22-.034-.18-.037-.361-.064-.54-.105-.156-.036-.309-.087-.464-.121-.566-.123.08.057.026.031a2.465,2.465,0,0,0-3.284.861,2.422,2.422,0,0,0,.861,3.284Z"></path><path class="c" d="M103.876,258.916a136.671,136.671,0,0,1,21.836-7.085,59.875,59.875,0,0,1,11.778-1.849,27.7,27.7,0,0,1,6.446.3,47.614,47.614,0,0,1,6.464,1.771c2.933.991,4.191-3.643,1.276-4.628a37.894,37.894,0,0,0-13.954-2.256,65.882,65.882,0,0,0-12.91,1.937,142.49,142.49,0,0,0-23.358,7.663,2.416,2.416,0,0,0-.861,3.284,2.459,2.459,0,0,0,3.283.861Z"></path><path class="c" d="M37.875,162.422c.153,9.135-.074,18.274-.293,27.406-.093,3.886-.2,7.773-.247,11.66-.05,3.785-.437,7.547-.832,11.31-.567,5.406-1.2,10.8-1.728,16.214a2.417,2.417,0,0,0,2.4,2.4,2.453,2.453,0,0,0,2.4-2.4c.477-4.84,1.025-9.671,1.546-14.506.418-3.882.965-7.825,1-11.734.072-8.276.378-16.55.513-24.825.085-5.175.127-10.351.041-15.525-.052-3.086-4.852-3.095-4.8,0Z"></path><path class="c" d="M134.452,155.775c.459,14.781.421,29.571.744,44.354l2.4-2.4c-11.885.457-23.784.6-35.676.756q-18.468.238-36.936.37c-3.826.033-7.653.054-11.478.12l2.4,2.4c-.208-12.047-.213-24.1-.33-36.146q-.042-4.385-.11-8.769c-.053-3.085-4.853-3.095-4.8,0,.209,12.135.218,24.273.334,36.409.027,2.835.057,5.671.106,8.506a2.435,2.435,0,0,0,2.4,2.4c8.722-.151,17.447-.168,26.17-.249,13.2-.122,26.408-.261,39.61-.513,6.1-.116,12.209-.249,18.31-.484a2.437,2.437,0,0,0,2.4-2.4c-.323-14.783-.285-29.573-.744-44.354-.1-3.081-4.9-3.094-4.8,0Z"></path><path class="c" d="M148.545,160.5c.164,9,.7,18,1.234,26.981.231,3.912.472,7.825.661,11.739.185,3.832.682,7.62,1.208,11.419.737,5.32,1.554,10.629,2.284,15.951a2.414,2.414,0,0,0,2.952,1.676,2.464,2.464,0,0,0,1.676-2.952c-.651-4.752-1.368-9.5-2.043-14.243-.518-3.641-1.069-7.3-1.236-10.975-.371-8.173-.953-16.336-1.371-24.507-.258-5.027-.473-10.056-.565-15.089-.056-3.085-4.856-3.095-4.8,0Z"></path><path class="c" d="M63.9,164.443A89.1,89.1,0,0,0,88.981,169.9a81.361,81.361,0,0,0,25.285-2.266,83.009,83.009,0,0,0,13.8-4.556,2.416,2.416,0,0,0,.861-3.284,2.462,2.462,0,0,0-3.284-.861,82.8,82.8,0,0,1-23.285,5.954,77.159,77.159,0,0,1-24.047-1.29,79.686,79.686,0,0,1-13.134-3.785,2.417,2.417,0,0,0-2.952,1.676,2.457,2.457,0,0,0,1.676,2.953Z"></path><path class="c" d="M64.03,77.256a9.472,9.472,0,0,0,7.3-4.39,2.4,2.4,0,1,0-4.145-2.423c-.1.156-.206.307-.318.455l.375-.486A7.269,7.269,0,0,1,65.963,71.7l.486-.376a7.476,7.476,0,0,1-1.64.955l.573-.242a7.2,7.2,0,0,1-1.753.477l.638-.085-.237.027a2.6,2.6,0,0,0-1.7.7,2.4,2.4,0,0,0,0,3.394,2.332,2.332,0,0,0,1.7.7Z"></path></svg>